<?xml version="1.0" encoding="UTF-8" standalone="no"?>
<svg
   width="716"
   height="1016"
   viewBox="0 0 716 1016"
   version="1.1"
   id="svg34"
   sodipodi:docname="led.svg"
   inkscape:version="1.2.2 (b0a8486541, 2022-12-01)"
   xmlns:inkscape="http://www.inkscape.org/namespaces/inkscape"
   xmlns:sodipodi="http://sodipodi.sourceforge.net/DTD/sodipodi-0.dtd"
   xmlns="http://www.w3.org/2000/svg"
   xmlns:svg="http://www.w3.org/2000/svg">
  <defs
     id="defs38" />
  <sodipodi:namedview
     id="namedview36"
     pagecolor="#ffffff"
     bordercolor="#000000"
     borderopacity="0.25"
     inkscape:showpageshadow="2"
     inkscape:pageopacity="0.0"
     inkscape:pagecheckerboard="0"
     inkscape:deskcolor="#d1d1d1"
     showgrid="false"
     inkscape:zoom="0.36298324"
     inkscape:cx="-126.72761"
     inkscape:cy="254.8327"
     inkscape:window-width="1280"
     inkscape:window-height="744"
     inkscape:window-x="0"
     inkscape:window-y="24"
     inkscape:window-maximized="1"
     inkscape:current-layer="g32" />
  <rect
     width="716"
     height="1016"
     fill="white"
     id="rect2" />
  <g
     fill="#000000"
     id="g32"
     transform="translate(0,30.446463)">
    <!-- Top -->
    <path
       d="m 140,80 h 436 l 40,40 -40,40 H 140 l -40,-40 z"
       id="path4" />
    <!-- Bottom -->
    <path
       d="m 139.37469,758.15096 h 436 l 40,40 -40,40 h -436 l -39.999995,-40 z"
       id="path6" />
    <!-- Upper left vertical -->
    <path
       d="m 49.257702,172.8918 40,-40 39.999998,40 v 220 l -39.999998,40 -40,-40 z"
       id="path8" />
    <!-- Upper right vertical -->
    <path
       d="m 588.73348,171.46588 40,-40 40,40 v 220 l -40,40 -40,-40 z"
       id="path10" />
    <!-- Lower left vertical -->
    <path
       d="m 46.432945,507.3448 40,-40 39.999995,40 v 220 l -39.999995,40 -40,-40 z"
       id="path12" />
    <!-- Lower right vertical -->
    <path
       d="m 586.15152,514.35662 40,-40 40,40 v 220 l -40,40 -40,-40 z"
       id="path14" />
    <!-- Middle left -->
    <path
       d="m 139.57966,412.91197 h 158 l 30,40 -30,40 h -158 l -40,-40 z"
       id="path16" />
    <!-- Middle right -->
    <path
       d="m 419.58215,413.43586 h 158 l 40,40 -40,40 h -158 l -30,-40 z"
       id="path18" />
    <!-- Center vertical upper -->
    <path
       d="M 318,195.13189 358,160 l 40,35.13189 v 217.81774 l -40,35.13189 -40,-35.13189 z"
       id="path20"
       style="stroke-width:0.937175" />
    <path
       d="m 317.19742,492.31526 40,-35.13189 40,35.13189 V 710.133 l -40,35.13189 -40,-35.13189 z"
       id="path20-3"
       style="stroke-width:0.937175" />
    <path
       d="m 150.23738,642.29078 -2.87862,47.23434 0.007,45.61071 149.09785,-135.67375 -0.21715,-33.90584 -1.56808,-50.40119 z"
       id="path20-3-6"
       style="stroke-width:0.937175"
       sodipodi:nodetypes="ccccccc" />
    <path
       d="m 153.05279,264.82383 -2.87862,-47.23434 0.007,-45.61071 149.09785,135.67375 -0.21715,33.90584 -1.56808,50.40119 z"
       id="path20-3-6-7"
       style="stroke-width:0.937175"
       sodipodi:nodetypes="ccccccc" />
    <path
       d="m 420.75302,611.28815 -2.87862,-47.23434 0.007,-45.61071 149.09785,135.67375 -0.21715,33.90584 -1.56808,50.40119 z"
       id="path20-3-6-7-56"
       style="stroke-width:0.937175"
       sodipodi:nodetypes="ccccccc" />
    <path
       d="m 415.21401,305.52924 -2.87862,47.23434 0.007,45.61071 149.09784,-135.67375 -0.21714,-33.90584 -1.56808,-50.40119 z"
       id="path20-3-6-7-5"
       style="stroke-width:0.937175"
       sodipodi:nodetypes="ccccccc" />
    <!-- Center vertical lower -->
    <!-- Upper left diagonal -->
    <!-- Upper right diagonal -->
    <!-- Lower left diagonal -->
    <!-- Lower right diagonal -->
  </g>
</svg>
