<?xml version="1.0" encoding="UTF-8"?>
<svg xmlns="http://www.w3.org/2000/svg" width="210mm" height="297mm" viewBox="0 0 210 297">
  <style>
    :root {
      --c1: #1ccda1;
      --c2: #e94c4c;
    }
    .c1 { fill: var(--c1); }
    .c2 { fill: var(--c2); }
  </style>
  <defs>
    <g id="quarter-tl">
    <path class="c1" d="m 137.87891,754.14552 214.92413,2.17957 -0.0485,37.66583 -0.2836,39.7713 -214.59203,0.38329 -40,-39.99999 z"/>
    <path class="c1" d="m 46.432945,507.3448 40,-40 39.999995,40 v 220 l -39.999995,40 -40,-40 z"/>
    <!-- <path class="c1" d="m 138.9127,410.48859 h 158 l 30,40 -49.07621,-0.0345 -124.46623,-0.10404 -54.457565,0.13851 z"/> -->
    <path class="c1" d="m 139.03223,501.30596 h 158 l 30,-40 -49.07621,0.0345 -124.46623,0.10404 -54.457557,-0.13851 z"/>
    <path class="c1" d="m 313.03223,502.43785 40,-35.13189 -0.18049,51.05648 -0.51742,199.36643 0.69791,37.6586 -40,-35.1319 z"/>
    <path class="c1" d="m 150.23738,642.29078 -2.87862,47.23434 0.007,45.61071 149.09785,-135.67375 -0.21715,-33.90584 -1.56808,-50.40119 z"/>
    </g>
  </defs>
  <g transform="matrix(0.26458333,0,0,0.26458333,9.8175305,21.987587)">
    <!-- Top-left quarter -->
    <use href="#quarter-tl"/>
    <!-- Top-right quarter -->
    <use href="#quarter-tl" transform="translate(712.06828,0) scale(-1,1)"/>
    <!-- Bottom-left quarter -->
    <use href="#quarter-tl" transform="translate(0,910.092813) scale(1,-1)"/>
    <!-- Bottom-right quarter -->
    <use href="#quarter-tl" transform="translate(712.06828,910.092813) scale(-1,-1)"/>
  </g>
</svg>
